<?xml version="1.0" encoding="UTF-8"?>
<!DOCTYPE svg PUBLIC "-//W3C//DTD SVG 1.1//EN" "http://www.w3.org/Graphics/SVG/1.1/DTD/svg11.dtd">
<svg xmlns="http://www.w3.org/2000/svg" style="background: transparent; background-color: transparent; color-scheme: light dark;" xmlns:xlink="http://www.w3.org/1999/xlink" version="1.1" width="12744px" height="5405px" viewBox="-0.5 -0.5 12744 5405"><defs/><g><g data-cell-id="0"><g data-cell-id="1"><g data-cell-id="FLOOR01"><g><g><svg width="12743.95" height="5404.97" viewBox="13.148000717163086 58.9640007019043 994.5419921875 421.5060119628906" fill="none" xmlns="http://www.w3.org/2000/svg" x="-0.5" y="-0.5" style="font-family: initial;">&#xa;<path d="M18.213 135.192L18.148 65.7214L344.966 65.5477M18.213 135.192L18.4041 339.199L602.888 340.696L656.325 376.057L709.762 411.419L729.826 443.445L749.891 475.47L1002.69 331.631L843.757 64.474L655.779 63.964L614.958 87.7355L553.948 87.454L533.566 65.4475L344.966 65.5477M18.213 135.192L344.882 137.85M344.882 137.85L344.851 161.914M344.882 137.85L344.966 65.5477" stroke="#A6A6A6" stroke-width="10"/>&#xa;<path d="M346.266 339.744L346.199 275.018L448.375 276.244M448.375 276.244L448.526 219.637L602.313 219.408L602.911 341.034M448.375 276.244L448.35 339.621M518.741 66.7898L517.776 160.392L677.878 160.415L675.805 66.0006M769.265 65.783L769.034 116.295L806.674 123.918L822.061 155.412L877.275 123.89M945.924 237.188L721.123 368.628L642.208 314.316M710.138 412.073L780.734 372.732M83.1175 65.7366L83.2188 135.883M180.958 66.5784L181.06 136.725M250.9 66.5951L250.08 137.82" stroke="#A6A6A6" stroke-width="5"/>&#xa;</svg></g></g></g><g data-cell-id="lp-i8iwr07r5Gb8ONTU4-2"><g/><g data-cell-id="lp-i8iwr07r5Gb8ONTU4-3"><g><path d="M 986.19 2615.15 L 994.45 2682.27 C 996.03 2692.13 991.7 2702.01 983.43 2707.43 C 955.14 2711.94 926.34 2711.94 898.05 2707.43 C 889.78 2702.01 885.46 2692.13 887.03 2682.27 L 895.3 2615.15 C 896.88 2607.73 904.76 2602.01 914.58 2601.17 L 966.91 2601.17 C 976.72 2602.01 984.6 2607.73 986.19 2615.15 Z" fill="#ffffff" stroke="#000000" stroke-miterlimit="10" transform="rotate(90,940.74,2652.01)" pointer-events="all" style="fill: light-dark(#ffffff, var(--ge-dark-color, #121212)); stroke: light-dark(rgb(0, 0, 0), rgb(255, 255, 255));"/><path d="M 984.04 2599.8 C 986.33 2600.66 987.57 2603.46 986.81 2606.04 C 986.04 2608.63 983.57 2610.03 981.28 2609.17 C 954.07 2602.4 925.87 2602.4 898.66 2609.17 C 896.94 2608.67 895.57 2607.23 895.02 2605.33 C 894.46 2603.44 894.79 2601.36 895.9 2599.8 C 924.89 2592.09 955.05 2592.09 984.04 2599.8" fill="#ffffff" stroke="#000000" stroke-miterlimit="10" transform="rotate(90,940.74,2652.01)" pointer-events="all" style="fill: light-dark(#ffffff, var(--ge-dark-color, #121212)); stroke: light-dark(rgb(0, 0, 0), rgb(255, 255, 255));"/></g></g><g data-cell-id="lp-i8iwr07r5Gb8ONTU4-4"><g><path d="M 986.19 2962.09 L 994.45 3029.2 C 996.03 3039.07 991.7 3048.94 983.43 3054.37 C 955.14 3058.87 926.34 3058.87 898.05 3054.37 C 889.78 3048.94 885.46 3039.07 887.03 3029.2 L 895.3 2962.09 C 896.88 2954.66 904.76 2948.95 914.58 2948.11 L 966.91 2948.11 C 976.72 2948.95 984.6 2954.66 986.19 2962.09 Z" fill="#ffffff" stroke="#000000" stroke-miterlimit="10" transform="rotate(90,940.74,2998.94)" pointer-events="all" style="fill: light-dark(#ffffff, var(--ge-dark-color, #121212)); stroke: light-dark(rgb(0, 0, 0), rgb(255, 255, 255));"/><path d="M 984.04 2946.74 C 986.33 2947.6 987.57 2950.39 986.81 2952.98 C 986.04 2955.56 983.57 2956.96 981.28 2956.1 C 954.07 2949.34 925.87 2949.34 898.66 2956.1 C 896.94 2955.6 895.57 2954.16 895.02 2952.27 C 894.46 2950.37 894.79 2948.29 895.9 2946.74 C 924.89 2939.02 955.05 2939.02 984.04 2946.74" fill="#ffffff" stroke="#000000" stroke-miterlimit="10" transform="rotate(90,940.74,2998.94)" pointer-events="all" style="fill: light-dark(#ffffff, var(--ge-dark-color, #121212)); stroke: light-dark(rgb(0, 0, 0), rgb(255, 255, 255));"/></g></g><g data-cell-id="lp-i8iwr07r5Gb8ONTU4-5"><g><path d="M 986.19 3307.79 L 994.45 3374.91 C 996.03 3384.77 991.7 3394.65 983.43 3400.08 C 955.14 3404.58 926.34 3404.58 898.05 3400.08 C 889.78 3394.65 885.46 3384.77 887.03 3374.91 L 895.3 3307.79 C 896.88 3300.37 904.76 3294.66 914.58 3293.81 L 966.91 3293.81 C 976.72 3294.66 984.6 3300.37 986.19 3307.79 Z" fill="#ffffff" stroke="#000000" stroke-miterlimit="10" transform="rotate(90,940.74,3344.65)" pointer-events="all" style="fill: light-dark(#ffffff, var(--ge-dark-color, #121212)); stroke: light-dark(rgb(0, 0, 0), rgb(255, 255, 255));"/><path d="M 984.04 3292.44 C 986.33 3293.3 987.57 3296.1 986.81 3298.68 C 986.04 3301.27 983.57 3302.67 981.28 3301.81 C 954.07 3295.04 925.87 3295.04 898.66 3301.81 C 896.94 3301.31 895.57 3299.87 895.02 3297.97 C 894.46 3296.08 894.79 3294 895.9 3292.44 C 924.89 3284.73 955.05 3284.73 984.04 3292.44" fill="#ffffff" stroke="#000000" stroke-miterlimit="10" transform="rotate(90,940.74,3344.65)" pointer-events="all" style="fill: light-dark(#ffffff, var(--ge-dark-color, #121212)); stroke: light-dark(rgb(0, 0, 0), rgb(255, 255, 255));"/></g></g><g data-cell-id="lp-i8iwr07r5Gb8ONTU4-6"><g><path d="M 807.69 1909.97 L 815.96 1977.08 C 817.53 1986.95 813.21 1996.83 804.94 2002.25 C 776.65 2006.76 747.84 2006.76 719.55 2002.25 C 711.29 1996.83 706.96 1986.95 708.54 1977.08 L 716.8 1909.97 C 718.38 1902.55 726.26 1896.83 736.08 1895.99 L 788.41 1895.99 C 798.23 1896.83 806.11 1902.55 807.69 1909.97 Z" fill="#ffffff" stroke="#000000" stroke-miterlimit="10" pointer-events="all" style="fill: light-dark(#ffffff, var(--ge-dark-color, #121212)); stroke: light-dark(rgb(0, 0, 0), rgb(255, 255, 255));"/><path d="M 805.54 1894.62 C 807.83 1895.48 809.07 1898.27 808.31 1900.86 C 807.55 1903.45 805.08 1904.85 802.79 1903.99 C 775.57 1897.22 747.38 1897.22 720.16 1903.99 C 718.45 1903.49 717.08 1902.04 716.52 1900.15 C 715.96 1898.26 716.3 1896.17 717.41 1894.62 C 746.39 1886.91 776.56 1886.91 805.54 1894.62" fill="#ffffff" stroke="#000000" stroke-miterlimit="10" pointer-events="all" style="fill: light-dark(#ffffff, var(--ge-dark-color, #121212)); stroke: light-dark(rgb(0, 0, 0), rgb(255, 255, 255));"/></g></g><g data-cell-id="lp-i8iwr07r5Gb8ONTU4-7"><g><path d="M 990.47 2266.74 L 998.73 2333.86 C 1000.31 2343.72 995.99 2353.6 987.72 2359.02 C 959.43 2363.53 930.62 2363.53 902.33 2359.02 C 894.07 2353.6 889.74 2343.72 891.32 2333.86 L 899.58 2266.74 C 901.16 2259.32 909.04 2253.6 918.86 2252.76 L 971.19 2252.76 C 981.01 2253.6 988.89 2259.32 990.47 2266.74 Z" fill="#ffffff" stroke="#000000" stroke-miterlimit="10" transform="rotate(90,945.03,2303.6)" pointer-events="all" style="fill: light-dark(#ffffff, var(--ge-dark-color, #121212)); stroke: light-dark(rgb(0, 0, 0), rgb(255, 255, 255));"/><path d="M 988.32 2251.39 C 990.61 2252.25 991.85 2255.04 991.09 2257.63 C 990.33 2260.22 987.86 2261.62 985.57 2260.76 C 958.35 2253.99 930.16 2253.99 902.94 2260.76 C 901.23 2260.26 899.86 2258.81 899.3 2256.92 C 898.74 2255.03 899.08 2252.95 900.19 2251.39 C 929.17 2243.68 959.34 2243.68 988.32 2251.39" fill="#ffffff" stroke="#000000" stroke-miterlimit="10" transform="rotate(90,945.03,2303.6)" pointer-events="all" style="fill: light-dark(#ffffff, var(--ge-dark-color, #121212)); stroke: light-dark(rgb(0, 0, 0), rgb(255, 255, 255));"/></g></g><g data-cell-id="lp-i8iwr07r5Gb8ONTU4-8"><g><path d="M 626.65 2280.68 L 634.92 2347.79 C 636.49 2357.66 632.17 2367.54 623.9 2372.96 C 595.61 2377.47 566.81 2377.47 538.52 2372.96 C 530.25 2367.54 525.92 2357.66 527.5 2347.79 L 535.76 2280.68 C 537.35 2273.25 545.23 2267.54 555.04 2266.7 L 607.37 2266.7 C 617.19 2267.54 625.07 2273.25 626.65 2280.68 Z" fill="#ffffff" stroke="#000000" stroke-miterlimit="10" transform="rotate(-90,581.21,2317.54)" pointer-events="all" style="fill: light-dark(#ffffff, var(--ge-dark-color, #121212)); stroke: light-dark(rgb(0, 0, 0), rgb(255, 255, 255));"/><path d="M 624.51 2265.33 C 626.79 2266.19 628.03 2268.98 627.27 2271.57 C 626.51 2274.15 624.04 2275.55 621.75 2274.7 C 594.53 2267.93 566.34 2267.93 539.12 2274.7 C 537.41 2274.2 536.04 2272.75 535.48 2270.86 C 534.93 2268.96 535.26 2266.88 536.37 2265.33 C 565.35 2257.62 595.52 2257.62 624.51 2265.33" fill="#ffffff" stroke="#000000" stroke-miterlimit="10" transform="rotate(-90,581.21,2317.54)" pointer-events="all" style="fill: light-dark(#ffffff, var(--ge-dark-color, #121212)); stroke: light-dark(rgb(0, 0, 0), rgb(255, 255, 255));"/></g></g><g data-cell-id="WSM001"><g><rect x="587.83" y="1955.2" width="331.67" height="167.24" rx="25.09" ry="25.09" fill="#ffffff" stroke="#000000" pointer-events="all" style="fill: light-dark(#ffffff, var(--ge-dark-color, #121212)); stroke: light-dark(rgb(0, 0, 0), rgb(255, 255, 255));"/></g></g><g data-cell-id="WSM002"><g><rect x="506.29" y="2219.99" width="331.67" height="167.24" rx="25.09" ry="25.09" fill="#ffffff" stroke="#000000" transform="rotate(90,672.13,2303.61)" pointer-events="all" style="fill: light-dark(#ffffff, var(--ge-dark-color, #121212)); stroke: light-dark(rgb(0, 0, 0), rgb(255, 255, 255));"/></g></g><g data-cell-id="WSM003"><g><rect x="677.96" y="2219.99" width="331.67" height="167.24" rx="25.09" ry="25.09" fill="#ffffff" stroke="#000000" transform="rotate(90,843.79,2303.61)" pointer-events="all" style="fill: light-dark(#ffffff, var(--ge-dark-color, #121212)); stroke: light-dark(rgb(0, 0, 0), rgb(255, 255, 255));"/></g></g><g data-cell-id="lp-i8iwr07r5Gb8ONTU4-12"><g><path d="M 622.37 2629.09 L 630.63 2696.2 C 632.21 2706.07 627.88 2715.95 619.62 2721.37 C 591.33 2725.88 562.52 2725.88 534.23 2721.37 C 525.96 2715.95 521.64 2706.07 523.22 2696.2 L 531.48 2629.09 C 533.06 2621.67 540.94 2615.95 550.76 2615.11 L 603.09 2615.11 C 612.91 2615.95 620.79 2621.67 622.37 2629.09 Z" fill="#ffffff" stroke="#000000" stroke-miterlimit="10" transform="rotate(-90,576.92,2665.95)" pointer-events="all" style="fill: light-dark(#ffffff, var(--ge-dark-color, #121212)); stroke: light-dark(rgb(0, 0, 0), rgb(255, 255, 255));"/><path d="M 620.22 2613.74 C 622.51 2614.6 623.75 2617.39 622.99 2619.98 C 622.23 2622.57 619.76 2623.97 617.47 2623.11 C 590.25 2616.34 562.06 2616.34 534.84 2623.11 C 533.13 2622.61 531.76 2621.16 531.2 2619.27 C 530.64 2617.38 530.98 2615.29 532.08 2613.74 C 561.07 2606.03 591.24 2606.03 620.22 2613.74" fill="#ffffff" stroke="#000000" stroke-miterlimit="10" transform="rotate(-90,576.92,2665.95)" pointer-events="all" style="fill: light-dark(#ffffff, var(--ge-dark-color, #121212)); stroke: light-dark(rgb(0, 0, 0), rgb(255, 255, 255));"/></g></g><g data-cell-id="WSM005"><g><rect x="673.67" y="2568.4" width="331.67" height="167.24" rx="25.09" ry="25.09" fill="#ffffff" stroke="#000000" transform="rotate(90,839.51,2652.02)" pointer-events="all" style="fill: light-dark(#ffffff, var(--ge-dark-color, #121212)); stroke: light-dark(rgb(0, 0, 0), rgb(255, 255, 255));"/></g></g><g data-cell-id="WSM004"><g><rect x="502.01" y="2568.4" width="331.67" height="167.24" rx="25.09" ry="25.09" fill="#ffffff" stroke="#000000" transform="rotate(90,667.84,2652.02)" pointer-events="all" style="fill: light-dark(#ffffff, var(--ge-dark-color, #121212)); stroke: light-dark(rgb(0, 0, 0), rgb(255, 255, 255));"/></g></g><g data-cell-id="lp-i8iwr07r5Gb8ONTU4-15"><g><path d="M 622.37 2976.02 L 630.63 3043.14 C 632.21 3053 627.88 3062.88 619.62 3068.31 C 591.33 3072.81 562.52 3072.81 534.23 3068.31 C 525.96 3062.88 521.64 3053 523.22 3043.14 L 531.48 2976.02 C 533.06 2968.6 540.94 2962.89 550.76 2962.04 L 603.09 2962.04 C 612.91 2962.89 620.79 2968.6 622.37 2976.02 Z" fill="#ffffff" stroke="#000000" stroke-miterlimit="10" transform="rotate(-90,576.92,3012.88)" pointer-events="all" style="fill: light-dark(#ffffff, var(--ge-dark-color, #121212)); stroke: light-dark(rgb(0, 0, 0), rgb(255, 255, 255));"/><path d="M 620.22 2960.67 C 622.51 2961.53 623.75 2964.33 622.99 2966.91 C 622.23 2969.5 619.76 2970.9 617.47 2970.04 C 590.25 2963.27 562.06 2963.27 534.84 2970.04 C 533.13 2969.54 531.76 2968.1 531.2 2966.2 C 530.64 2964.31 530.98 2962.23 532.08 2960.67 C 561.07 2952.96 591.24 2952.96 620.22 2960.67" fill="#ffffff" stroke="#000000" stroke-miterlimit="10" transform="rotate(-90,576.92,3012.88)" pointer-events="all" style="fill: light-dark(#ffffff, var(--ge-dark-color, #121212)); stroke: light-dark(rgb(0, 0, 0), rgb(255, 255, 255));"/></g></g><g data-cell-id="WSM007"><g><rect x="673.67" y="2915.34" width="331.67" height="167.24" rx="25.09" ry="25.09" fill="#ffffff" stroke="#000000" transform="rotate(90,839.51,2998.96)" pointer-events="all" style="fill: light-dark(#ffffff, var(--ge-dark-color, #121212)); stroke: light-dark(rgb(0, 0, 0), rgb(255, 255, 255));"/></g></g><g data-cell-id="WSM006"><g><rect x="502.01" y="2915.34" width="331.67" height="167.24" rx="25.09" ry="25.09" fill="#ffffff" stroke="#000000" transform="rotate(90,667.84,2998.96)" pointer-events="all" style="fill: light-dark(#ffffff, var(--ge-dark-color, #121212)); stroke: light-dark(rgb(0, 0, 0), rgb(255, 255, 255));"/></g></g><g data-cell-id="lp-i8iwr07r5Gb8ONTU4-18"><g><path d="M 622.37 3321.73 L 630.63 3388.84 C 632.21 3398.71 627.88 3408.59 619.62 3414.01 C 591.33 3418.52 562.52 3418.52 534.23 3414.01 C 525.96 3408.59 521.64 3398.71 523.22 3388.84 L 531.48 3321.73 C 533.06 3314.31 540.94 3308.59 550.76 3307.75 L 603.09 3307.75 C 612.91 3308.59 620.79 3314.31 622.37 3321.73 Z" fill="#ffffff" stroke="#000000" stroke-miterlimit="10" transform="rotate(-90,576.92,3358.59)" pointer-events="all" style="fill: light-dark(#ffffff, var(--ge-dark-color, #121212)); stroke: light-dark(rgb(0, 0, 0), rgb(255, 255, 255));"/><path d="M 620.22 3306.38 C 622.51 3307.24 623.75 3310.03 622.99 3312.62 C 622.23 3315.21 619.76 3316.61 617.47 3315.75 C 590.25 3308.98 562.06 3308.98 534.84 3315.75 C 533.13 3315.25 531.76 3313.8 531.2 3311.91 C 530.64 3310.02 530.98 3307.93 532.08 3306.38 C 561.07 3298.67 591.24 3298.67 620.22 3306.38" fill="#ffffff" stroke="#000000" stroke-miterlimit="10" transform="rotate(-90,576.92,3358.59)" pointer-events="all" style="fill: light-dark(#ffffff, var(--ge-dark-color, #121212)); stroke: light-dark(rgb(0, 0, 0), rgb(255, 255, 255));"/></g></g><g data-cell-id="WSM009"><g><rect x="673.67" y="3261.04" width="331.67" height="167.24" rx="25.09" ry="25.09" fill="#ffffff" stroke="#000000" transform="rotate(90,839.51,3344.66)" pointer-events="all" style="fill: light-dark(#ffffff, var(--ge-dark-color, #121212)); stroke: light-dark(rgb(0, 0, 0), rgb(255, 255, 255));"/></g></g><g data-cell-id="WSM008"><g><rect x="502.01" y="3261.04" width="331.67" height="167.24" rx="25.09" ry="25.09" fill="#ffffff" stroke="#000000" transform="rotate(90,667.84,3344.66)" pointer-events="all" style="fill: light-dark(#ffffff, var(--ge-dark-color, #121212)); stroke: light-dark(rgb(0, 0, 0), rgb(255, 255, 255));"/></g></g></g></g></g></g></svg>