<?xml version="1.0" encoding="UTF-8"?>
<!DOCTYPE svg PUBLIC "-//W3C//DTD SVG 1.1//EN" "http://www.w3.org/Graphics/SVG/1.1/DTD/svg11.dtd">
<svg xmlns="http://www.w3.org/2000/svg" style="background: transparent; background-color: transparent; color-scheme: light dark;" xmlns:xlink="http://www.w3.org/1999/xlink" version="1.1" width="489px" height="1625px" viewBox="-0.5 -0.5 489 1625"><defs/><g><g data-cell-id="0"><g data-cell-id="1"><g data-cell-id="lp-i8iwr07r5Gb8ONTU4-2"><g/><g data-cell-id="lp-i8iwr07r5Gb8ONTU4-3"><g><path d="M 469.19 728.15 L 477.45 795.27 C 479.03 805.13 474.7 815.01 466.43 820.43 C 438.14 824.94 409.34 824.94 381.05 820.43 C 372.78 815.01 368.46 805.13 370.03 795.27 L 378.3 728.15 C 379.88 720.73 387.76 715.01 397.58 714.17 L 449.91 714.17 C 459.72 715.01 467.6 720.73 469.19 728.15 Z" fill="#ffffff" stroke="#000000" stroke-miterlimit="10" transform="rotate(90,423.74,765.01)" pointer-events="all" style="fill: light-dark(#ffffff, var(--ge-dark-color, #121212)); stroke: light-dark(rgb(0, 0, 0), rgb(255, 255, 255));"/><path d="M 467.04 712.8 C 469.33 713.66 470.57 716.46 469.81 719.04 C 469.04 721.63 466.57 723.03 464.28 722.17 C 437.07 715.4 408.87 715.4 381.66 722.17 C 379.94 721.67 378.57 720.23 378.02 718.33 C 377.46 716.44 377.79 714.36 378.9 712.8 C 407.89 705.09 438.05 705.09 467.04 712.8" fill="#ffffff" stroke="#000000" stroke-miterlimit="10" transform="rotate(90,423.74,765.01)" pointer-events="all" style="fill: light-dark(#ffffff, var(--ge-dark-color, #121212)); stroke: light-dark(rgb(0, 0, 0), rgb(255, 255, 255));"/></g></g><g data-cell-id="lp-i8iwr07r5Gb8ONTU4-4"><g><path d="M 469.19 1075.09 L 477.45 1142.2 C 479.03 1152.07 474.7 1161.94 466.43 1167.37 C 438.14 1171.87 409.34 1171.87 381.05 1167.37 C 372.78 1161.94 368.46 1152.07 370.03 1142.2 L 378.3 1075.09 C 379.88 1067.66 387.76 1061.95 397.58 1061.11 L 449.91 1061.11 C 459.72 1061.95 467.6 1067.66 469.19 1075.09 Z" fill="#ffffff" stroke="#000000" stroke-miterlimit="10" transform="rotate(90,423.74,1111.94)" pointer-events="all" style="fill: light-dark(#ffffff, var(--ge-dark-color, #121212)); stroke: light-dark(rgb(0, 0, 0), rgb(255, 255, 255));"/><path d="M 467.04 1059.74 C 469.33 1060.6 470.57 1063.39 469.81 1065.98 C 469.04 1068.56 466.57 1069.96 464.28 1069.1 C 437.07 1062.34 408.87 1062.34 381.66 1069.1 C 379.94 1068.6 378.57 1067.16 378.02 1065.27 C 377.46 1063.37 377.79 1061.29 378.9 1059.74 C 407.89 1052.02 438.05 1052.02 467.04 1059.74" fill="#ffffff" stroke="#000000" stroke-miterlimit="10" transform="rotate(90,423.74,1111.94)" pointer-events="all" style="fill: light-dark(#ffffff, var(--ge-dark-color, #121212)); stroke: light-dark(rgb(0, 0, 0), rgb(255, 255, 255));"/></g></g><g data-cell-id="lp-i8iwr07r5Gb8ONTU4-5"><g><path d="M 469.19 1420.79 L 477.45 1487.91 C 479.03 1497.77 474.7 1507.65 466.43 1513.08 C 438.14 1517.58 409.34 1517.58 381.05 1513.08 C 372.78 1507.65 368.46 1497.77 370.03 1487.91 L 378.3 1420.79 C 379.88 1413.37 387.76 1407.66 397.58 1406.81 L 449.91 1406.81 C 459.72 1407.66 467.6 1413.37 469.19 1420.79 Z" fill="#ffffff" stroke="#000000" stroke-miterlimit="10" transform="rotate(90,423.74,1457.65)" pointer-events="all" style="fill: light-dark(#ffffff, var(--ge-dark-color, #121212)); stroke: light-dark(rgb(0, 0, 0), rgb(255, 255, 255));"/><path d="M 467.04 1405.44 C 469.33 1406.3 470.57 1409.1 469.81 1411.68 C 469.04 1414.27 466.57 1415.67 464.28 1414.81 C 437.07 1408.04 408.87 1408.04 381.66 1414.81 C 379.94 1414.31 378.57 1412.87 378.02 1410.97 C 377.46 1409.08 377.79 1407 378.9 1405.44 C 407.89 1397.73 438.05 1397.73 467.04 1405.44" fill="#ffffff" stroke="#000000" stroke-miterlimit="10" transform="rotate(90,423.74,1457.65)" pointer-events="all" style="fill: light-dark(#ffffff, var(--ge-dark-color, #121212)); stroke: light-dark(rgb(0, 0, 0), rgb(255, 255, 255));"/></g></g><g data-cell-id="lp-i8iwr07r5Gb8ONTU4-6"><g><path d="M 290.69 22.97 L 298.96 90.08 C 300.53 99.95 296.21 109.83 287.94 115.25 C 259.65 119.76 230.84 119.76 202.55 115.25 C 194.29 109.83 189.96 99.95 191.54 90.08 L 199.8 22.97 C 201.38 15.55 209.26 9.83 219.08 8.99 L 271.41 8.99 C 281.23 9.83 289.11 15.55 290.69 22.97 Z" fill="#ffffff" stroke="#000000" stroke-miterlimit="10" pointer-events="all" style="fill: light-dark(#ffffff, var(--ge-dark-color, #121212)); stroke: light-dark(rgb(0, 0, 0), rgb(255, 255, 255));"/><path d="M 288.54 7.62 C 290.83 8.48 292.07 11.27 291.31 13.86 C 290.55 16.45 288.08 17.85 285.79 16.99 C 258.57 10.22 230.38 10.22 203.16 16.99 C 201.45 16.49 200.08 15.04 199.52 13.15 C 198.96 11.26 199.3 9.17 200.41 7.62 C 229.39 -0.09 259.56 -0.09 288.54 7.62" fill="#ffffff" stroke="#000000" stroke-miterlimit="10" pointer-events="all" style="fill: light-dark(#ffffff, var(--ge-dark-color, #121212)); stroke: light-dark(rgb(0, 0, 0), rgb(255, 255, 255));"/></g></g><g data-cell-id="lp-i8iwr07r5Gb8ONTU4-7"><g><path d="M 473.47 379.74 L 481.73 446.86 C 483.31 456.72 478.99 466.6 470.72 472.02 C 442.43 476.53 413.62 476.53 385.33 472.02 C 377.07 466.6 372.74 456.72 374.32 446.86 L 382.58 379.74 C 384.16 372.32 392.04 366.6 401.86 365.76 L 454.19 365.76 C 464.01 366.6 471.89 372.32 473.47 379.74 Z" fill="#ffffff" stroke="#000000" stroke-miterlimit="10" transform="rotate(90,428.03,416.6)" pointer-events="all" style="fill: light-dark(#ffffff, var(--ge-dark-color, #121212)); stroke: light-dark(rgb(0, 0, 0), rgb(255, 255, 255));"/><path d="M 471.32 364.39 C 473.61 365.25 474.85 368.04 474.09 370.63 C 473.33 373.22 470.86 374.62 468.57 373.76 C 441.35 366.99 413.16 366.99 385.94 373.76 C 384.23 373.26 382.86 371.81 382.3 369.92 C 381.74 368.03 382.08 365.95 383.19 364.39 C 412.17 356.68 442.34 356.68 471.32 364.39" fill="#ffffff" stroke="#000000" stroke-miterlimit="10" transform="rotate(90,428.03,416.6)" pointer-events="all" style="fill: light-dark(#ffffff, var(--ge-dark-color, #121212)); stroke: light-dark(rgb(0, 0, 0), rgb(255, 255, 255));"/></g></g><g data-cell-id="lp-i8iwr07r5Gb8ONTU4-8"><g><path d="M 109.65 393.68 L 117.92 460.79 C 119.49 470.66 115.17 480.54 106.9 485.96 C 78.61 490.47 49.81 490.47 21.52 485.96 C 13.25 480.54 8.92 470.66 10.5 460.79 L 18.76 393.68 C 20.35 386.25 28.23 380.54 38.04 379.7 L 90.37 379.7 C 100.19 380.54 108.07 386.25 109.65 393.68 Z" fill="#ffffff" stroke="#000000" stroke-miterlimit="10" transform="rotate(-90,64.21,430.54)" pointer-events="all" style="fill: light-dark(#ffffff, var(--ge-dark-color, #121212)); stroke: light-dark(rgb(0, 0, 0), rgb(255, 255, 255));"/><path d="M 107.51 378.33 C 109.79 379.19 111.03 381.98 110.27 384.57 C 109.51 387.15 107.04 388.55 104.75 387.7 C 77.53 380.93 49.34 380.93 22.12 387.7 C 20.41 387.2 19.04 385.75 18.48 383.86 C 17.93 381.96 18.26 379.88 19.37 378.33 C 48.35 370.62 78.52 370.62 107.51 378.33" fill="#ffffff" stroke="#000000" stroke-miterlimit="10" transform="rotate(-90,64.21,430.54)" pointer-events="all" style="fill: light-dark(#ffffff, var(--ge-dark-color, #121212)); stroke: light-dark(rgb(0, 0, 0), rgb(255, 255, 255));"/></g></g><g data-cell-id="WSM001"><g><rect x="70.83" y="68.2" width="331.67" height="167.24" rx="25.09" ry="25.09" fill="#ffffff" stroke="#000000" pointer-events="all" style="fill: light-dark(#ffffff, var(--ge-dark-color, #121212)); stroke: light-dark(rgb(0, 0, 0), rgb(255, 255, 255));"/></g></g><g data-cell-id="WSM002"><g><rect x="-10.71" y="332.99" width="331.67" height="167.24" rx="25.09" ry="25.09" fill="#ffffff" stroke="#000000" transform="rotate(90,155.13,416.61)" pointer-events="all" style="fill: light-dark(#ffffff, var(--ge-dark-color, #121212)); stroke: light-dark(rgb(0, 0, 0), rgb(255, 255, 255));"/></g></g><g data-cell-id="WSM003"><g><rect x="160.96" y="332.99" width="331.67" height="167.24" rx="25.09" ry="25.09" fill="#ffffff" stroke="#000000" transform="rotate(90,326.79,416.61)" pointer-events="all" style="fill: light-dark(#ffffff, var(--ge-dark-color, #121212)); stroke: light-dark(rgb(0, 0, 0), rgb(255, 255, 255));"/></g></g><g data-cell-id="lp-i8iwr07r5Gb8ONTU4-12"><g><path d="M 105.37 742.09 L 113.63 809.2 C 115.21 819.07 110.88 828.95 102.62 834.37 C 74.33 838.88 45.52 838.88 17.23 834.37 C 8.96 828.95 4.64 819.07 6.22 809.2 L 14.48 742.09 C 16.06 734.67 23.94 728.95 33.76 728.11 L 86.09 728.11 C 95.91 728.95 103.79 734.67 105.37 742.09 Z" fill="#ffffff" stroke="#000000" stroke-miterlimit="10" transform="rotate(-90,59.92,778.95)" pointer-events="all" style="fill: light-dark(#ffffff, var(--ge-dark-color, #121212)); stroke: light-dark(rgb(0, 0, 0), rgb(255, 255, 255));"/><path d="M 103.22 726.74 C 105.51 727.6 106.75 730.39 105.99 732.98 C 105.23 735.57 102.76 736.97 100.47 736.11 C 73.25 729.34 45.06 729.34 17.84 736.11 C 16.13 735.61 14.76 734.16 14.2 732.27 C 13.64 730.38 13.98 728.29 15.08 726.74 C 44.07 719.03 74.24 719.03 103.22 726.74" fill="#ffffff" stroke="#000000" stroke-miterlimit="10" transform="rotate(-90,59.92,778.95)" pointer-events="all" style="fill: light-dark(#ffffff, var(--ge-dark-color, #121212)); stroke: light-dark(rgb(0, 0, 0), rgb(255, 255, 255));"/></g></g><g data-cell-id="WSM005"><g><rect x="156.67" y="681.4" width="331.67" height="167.24" rx="25.09" ry="25.09" fill="#ffffff" stroke="#000000" transform="rotate(90,322.51,765.02)" pointer-events="all" style="fill: light-dark(#ffffff, var(--ge-dark-color, #121212)); stroke: light-dark(rgb(0, 0, 0), rgb(255, 255, 255));"/></g></g><g data-cell-id="WSM004"><g><rect x="-14.99" y="681.4" width="331.67" height="167.24" rx="25.09" ry="25.09" fill="#ffffff" stroke="#000000" transform="rotate(90,150.84,765.02)" pointer-events="all" style="fill: light-dark(#ffffff, var(--ge-dark-color, #121212)); stroke: light-dark(rgb(0, 0, 0), rgb(255, 255, 255));"/></g></g><g data-cell-id="lp-i8iwr07r5Gb8ONTU4-15"><g><path d="M 105.37 1089.02 L 113.63 1156.14 C 115.21 1166 110.88 1175.88 102.62 1181.31 C 74.33 1185.81 45.52 1185.81 17.23 1181.31 C 8.96 1175.88 4.64 1166 6.22 1156.14 L 14.48 1089.02 C 16.06 1081.6 23.94 1075.89 33.76 1075.04 L 86.09 1075.04 C 95.91 1075.89 103.79 1081.6 105.37 1089.02 Z" fill="#ffffff" stroke="#000000" stroke-miterlimit="10" transform="rotate(-90,59.92,1125.88)" pointer-events="all" style="fill: light-dark(#ffffff, var(--ge-dark-color, #121212)); stroke: light-dark(rgb(0, 0, 0), rgb(255, 255, 255));"/><path d="M 103.22 1073.67 C 105.51 1074.53 106.75 1077.33 105.99 1079.91 C 105.23 1082.5 102.76 1083.9 100.47 1083.04 C 73.25 1076.27 45.06 1076.27 17.84 1083.04 C 16.13 1082.54 14.76 1081.1 14.2 1079.2 C 13.64 1077.31 13.98 1075.23 15.08 1073.67 C 44.07 1065.96 74.24 1065.96 103.22 1073.67" fill="#ffffff" stroke="#000000" stroke-miterlimit="10" transform="rotate(-90,59.92,1125.88)" pointer-events="all" style="fill: light-dark(#ffffff, var(--ge-dark-color, #121212)); stroke: light-dark(rgb(0, 0, 0), rgb(255, 255, 255));"/></g></g><g data-cell-id="WSM007"><g><rect x="156.67" y="1028.34" width="331.67" height="167.24" rx="25.09" ry="25.09" fill="#ffffff" stroke="#000000" transform="rotate(90,322.51,1111.96)" pointer-events="all" style="fill: light-dark(#ffffff, var(--ge-dark-color, #121212)); stroke: light-dark(rgb(0, 0, 0), rgb(255, 255, 255));"/></g></g><g data-cell-id="WSM006"><g><rect x="-14.99" y="1028.34" width="331.67" height="167.24" rx="25.09" ry="25.09" fill="#ffffff" stroke="#000000" transform="rotate(90,150.84,1111.96)" pointer-events="all" style="fill: light-dark(#ffffff, var(--ge-dark-color, #121212)); stroke: light-dark(rgb(0, 0, 0), rgb(255, 255, 255));"/></g></g><g data-cell-id="lp-i8iwr07r5Gb8ONTU4-18"><g><path d="M 105.37 1434.73 L 113.63 1501.84 C 115.21 1511.71 110.88 1521.59 102.62 1527.01 C 74.33 1531.52 45.52 1531.52 17.23 1527.01 C 8.96 1521.59 4.64 1511.71 6.22 1501.84 L 14.48 1434.73 C 16.06 1427.31 23.94 1421.59 33.76 1420.75 L 86.09 1420.75 C 95.91 1421.59 103.79 1427.31 105.37 1434.73 Z" fill="#ffffff" stroke="#000000" stroke-miterlimit="10" transform="rotate(-90,59.92,1471.59)" pointer-events="all" style="fill: light-dark(#ffffff, var(--ge-dark-color, #121212)); stroke: light-dark(rgb(0, 0, 0), rgb(255, 255, 255));"/><path d="M 103.22 1419.38 C 105.51 1420.24 106.75 1423.03 105.99 1425.62 C 105.23 1428.21 102.76 1429.61 100.47 1428.75 C 73.25 1421.98 45.06 1421.98 17.84 1428.75 C 16.13 1428.25 14.76 1426.8 14.2 1424.91 C 13.64 1423.02 13.98 1420.93 15.08 1419.38 C 44.07 1411.67 74.24 1411.67 103.22 1419.38" fill="#ffffff" stroke="#000000" stroke-miterlimit="10" transform="rotate(-90,59.92,1471.59)" pointer-events="all" style="fill: light-dark(#ffffff, var(--ge-dark-color, #121212)); stroke: light-dark(rgb(0, 0, 0), rgb(255, 255, 255));"/></g></g><g data-cell-id="WSM009"><g><rect x="156.67" y="1374.04" width="331.67" height="167.24" rx="25.09" ry="25.09" fill="#ffffff" stroke="#000000" transform="rotate(90,322.51,1457.66)" pointer-events="all" style="fill: light-dark(#ffffff, var(--ge-dark-color, #121212)); stroke: light-dark(rgb(0, 0, 0), rgb(255, 255, 255));"/></g></g><g data-cell-id="WSM008"><g><rect x="-14.99" y="1374.04" width="331.67" height="167.24" rx="25.09" ry="25.09" fill="#ffffff" stroke="#000000" transform="rotate(90,150.84,1457.66)" pointer-events="all" style="fill: light-dark(#ffffff, var(--ge-dark-color, #121212)); stroke: light-dark(rgb(0, 0, 0), rgb(255, 255, 255));"/></g></g></g></g></g></g></svg>