<?xml version="1.0" encoding="UTF-8"?>
<!DOCTYPE svg PUBLIC "-//W3C//DTD SVG 1.1//EN" "http://www.w3.org/Graphics/SVG/1.1/DTD/svg11.dtd">
<svg xmlns="http://www.w3.org/2000/svg" style="background: transparent; background-color: transparent; color-scheme: light dark;" xmlns:xlink="http://www.w3.org/1999/xlink" version="1.1" width="178px" height="585px" viewBox="-0.5 -0.5 178 585"><defs/><g><g data-cell-id="0"><g data-cell-id="1"><g data-cell-id="F7J1Af_dbKJEZEgm15s_-1"><g><path d="M 169.18 261.27 L 172.17 285.35 C 172.74 288.89 171.17 292.43 168.18 294.38 C 157.95 296 147.52 296 137.29 294.38 C 134.3 292.43 132.73 288.89 133.3 285.35 L 136.29 261.27 C 136.87 258.61 139.72 256.56 143.27 256.26 L 162.2 256.26 C 165.75 256.56 168.61 258.61 169.18 261.27 Z" fill="#ffffff" stroke="#000000" stroke-miterlimit="10" transform="rotate(90,152.74,274.5)" pointer-events="all" style="fill: light-dark(#ffffff, var(--ge-dark-color, #121212)); stroke: light-dark(rgb(0, 0, 0), rgb(255, 255, 255));"/><path d="M 168.4 255.76 C 169.23 256.07 169.68 257.08 169.4 258 C 169.13 258.93 168.23 259.43 167.4 259.13 C 157.56 256.7 147.36 256.7 137.51 259.13 C 136.89 258.95 136.39 258.43 136.19 257.75 C 135.99 257.07 136.11 256.32 136.51 255.76 C 147 253 157.91 253 168.4 255.76" fill="#ffffff" stroke="#000000" stroke-miterlimit="10" transform="rotate(90,152.74,274.5)" pointer-events="all" style="fill: light-dark(#ffffff, var(--ge-dark-color, #121212)); stroke: light-dark(rgb(0, 0, 0), rgb(255, 255, 255));"/></g></g><g data-cell-id="F7J1Af_dbKJEZEgm15s_-2"><g><path d="M 169.18 385.74 L 172.17 409.82 C 172.74 413.36 171.17 416.9 168.18 418.85 C 157.95 420.47 147.52 420.47 137.29 418.85 C 134.3 416.9 132.73 413.36 133.3 409.82 L 136.29 385.74 C 136.87 383.08 139.72 381.03 143.27 380.73 L 162.2 380.73 C 165.75 381.03 168.61 383.08 169.18 385.74 Z" fill="#ffffff" stroke="#000000" stroke-miterlimit="10" transform="rotate(90,152.74,398.97)" pointer-events="all" style="fill: light-dark(#ffffff, var(--ge-dark-color, #121212)); stroke: light-dark(rgb(0, 0, 0), rgb(255, 255, 255));"/><path d="M 168.4 380.23 C 169.23 380.54 169.68 381.55 169.4 382.47 C 169.13 383.4 168.23 383.9 167.4 383.6 C 157.56 381.17 147.36 381.17 137.51 383.6 C 136.89 383.42 136.39 382.9 136.19 382.22 C 135.99 381.54 136.11 380.79 136.51 380.23 C 147 377.47 157.91 377.47 168.4 380.23" fill="#ffffff" stroke="#000000" stroke-miterlimit="10" transform="rotate(90,152.74,398.97)" pointer-events="all" style="fill: light-dark(#ffffff, var(--ge-dark-color, #121212)); stroke: light-dark(rgb(0, 0, 0), rgb(255, 255, 255));"/></g></g><g data-cell-id="F7J1Af_dbKJEZEgm15s_-3"><g><path d="M 169.18 509.77 L 172.17 533.85 C 172.74 537.39 171.17 540.93 168.18 542.88 C 157.95 544.5 147.52 544.5 137.29 542.88 C 134.3 540.93 132.73 537.39 133.3 533.85 L 136.29 509.77 C 136.87 507.11 139.72 505.06 143.27 504.76 L 162.2 504.76 C 165.75 505.06 168.61 507.11 169.18 509.77 Z" fill="#ffffff" stroke="#000000" stroke-miterlimit="10" transform="rotate(90,152.74,523)" pointer-events="all" style="fill: light-dark(#ffffff, var(--ge-dark-color, #121212)); stroke: light-dark(rgb(0, 0, 0), rgb(255, 255, 255));"/><path d="M 168.4 504.26 C 169.23 504.57 169.68 505.58 169.4 506.5 C 169.13 507.43 168.23 507.93 167.4 507.63 C 157.56 505.2 147.36 505.2 137.51 507.63 C 136.89 507.45 136.39 506.93 136.19 506.25 C 135.99 505.57 136.11 504.82 136.51 504.26 C 147 501.5 157.91 501.5 168.4 504.26" fill="#ffffff" stroke="#000000" stroke-miterlimit="10" transform="rotate(90,152.74,523)" pointer-events="all" style="fill: light-dark(#ffffff, var(--ge-dark-color, #121212)); stroke: light-dark(rgb(0, 0, 0), rgb(255, 255, 255));"/></g></g><g data-cell-id="F7J1Af_dbKJEZEgm15s_-4"><g><path d="M 104.6 8.27 L 107.59 32.35 C 108.16 35.89 106.59 39.43 103.6 41.38 C 93.37 43 82.94 43 72.71 41.38 C 69.72 39.43 68.15 35.89 68.72 32.35 L 71.71 8.27 C 72.29 5.61 75.14 3.56 78.69 3.26 L 97.62 3.26 C 101.17 3.56 104.03 5.61 104.6 8.27 Z" fill="#ffffff" stroke="#000000" stroke-miterlimit="10" pointer-events="all" style="fill: light-dark(#ffffff, var(--ge-dark-color, #121212)); stroke: light-dark(rgb(0, 0, 0), rgb(255, 255, 255));"/><path d="M 103.82 2.76 C 104.65 3.07 105.1 4.08 104.82 5 C 104.55 5.93 103.65 6.43 102.82 6.13 C 92.98 3.7 82.78 3.7 72.93 6.13 C 72.31 5.95 71.81 5.43 71.61 4.75 C 71.41 4.07 71.53 3.32 71.93 2.76 C 82.42 0 93.33 0 103.82 2.76" fill="#ffffff" stroke="#000000" stroke-miterlimit="10" pointer-events="all" style="fill: light-dark(#ffffff, var(--ge-dark-color, #121212)); stroke: light-dark(rgb(0, 0, 0), rgb(255, 255, 255));"/></g></g><g data-cell-id="F7J1Af_dbKJEZEgm15s_-5"><g><path d="M 170.73 136.27 L 173.72 160.35 C 174.29 163.89 172.72 167.43 169.73 169.38 C 159.5 171 149.07 171 138.84 169.38 C 135.85 167.43 134.28 163.89 134.85 160.35 L 137.84 136.27 C 138.42 133.61 141.27 131.56 144.82 131.26 L 163.75 131.26 C 167.3 131.56 170.16 133.61 170.73 136.27 Z" fill="#ffffff" stroke="#000000" stroke-miterlimit="10" transform="rotate(90,154.29,149.5)" pointer-events="all" style="fill: light-dark(#ffffff, var(--ge-dark-color, #121212)); stroke: light-dark(rgb(0, 0, 0), rgb(255, 255, 255));"/><path d="M 169.95 130.76 C 170.78 131.07 171.23 132.08 170.95 133 C 170.68 133.93 169.78 134.43 168.95 134.13 C 159.11 131.7 148.91 131.7 139.06 134.13 C 138.44 133.95 137.94 133.43 137.74 132.75 C 137.54 132.07 137.66 131.32 138.06 130.76 C 148.55 128 159.46 128 169.95 130.76" fill="#ffffff" stroke="#000000" stroke-miterlimit="10" transform="rotate(90,154.29,149.5)" pointer-events="all" style="fill: light-dark(#ffffff, var(--ge-dark-color, #121212)); stroke: light-dark(rgb(0, 0, 0), rgb(255, 255, 255));"/></g></g><g data-cell-id="F7J1Af_dbKJEZEgm15s_-6"><g><path d="M 39.1 141.27 L 42.09 165.35 C 42.66 168.89 41.09 172.43 38.1 174.38 C 27.87 176 17.44 176 7.21 174.38 C 4.22 172.43 2.65 168.89 3.22 165.35 L 6.21 141.27 C 6.79 138.61 9.64 136.56 13.19 136.26 L 32.12 136.26 C 35.67 136.56 38.53 138.61 39.1 141.27 Z" fill="#ffffff" stroke="#000000" stroke-miterlimit="10" transform="rotate(-90,22.66,154.5)" pointer-events="all" style="fill: light-dark(#ffffff, var(--ge-dark-color, #121212)); stroke: light-dark(rgb(0, 0, 0), rgb(255, 255, 255));"/><path d="M 38.32 135.76 C 39.15 136.07 39.6 137.08 39.32 138 C 39.05 138.93 38.15 139.43 37.32 139.13 C 27.48 136.7 17.28 136.7 7.43 139.13 C 6.81 138.95 6.31 138.43 6.11 137.75 C 5.91 137.07 6.03 136.32 6.43 135.76 C 16.92 133 27.83 133 38.32 135.76" fill="#ffffff" stroke="#000000" stroke-miterlimit="10" transform="rotate(-90,22.66,154.5)" pointer-events="all" style="fill: light-dark(#ffffff, var(--ge-dark-color, #121212)); stroke: light-dark(rgb(0, 0, 0), rgb(255, 255, 255));"/></g></g><g data-cell-id="F7J1Af_dbKJEZEgm15s_-7"><g><rect x="25.05" y="24.5" width="120" height="60" rx="9" ry="9" fill="#ffffff" stroke="#000000" pointer-events="all" style="fill: light-dark(#ffffff, var(--ge-dark-color, #121212)); stroke: light-dark(rgb(0, 0, 0), rgb(255, 255, 255));"/></g></g><g data-cell-id="F7J1Af_dbKJEZEgm15s_-8"><g><rect x="-4.45" y="119.5" width="120" height="60" rx="9" ry="9" fill="#ffffff" stroke="#000000" transform="rotate(90,55.55,149.5)" pointer-events="all" style="fill: light-dark(#ffffff, var(--ge-dark-color, #121212)); stroke: light-dark(rgb(0, 0, 0), rgb(255, 255, 255));"/></g></g><g data-cell-id="F7J1Af_dbKJEZEgm15s_-9"><g><rect x="57.66" y="119.5" width="120" height="60" rx="9" ry="9" fill="#ffffff" stroke="#000000" transform="rotate(90,117.66,149.5)" pointer-events="all" style="fill: light-dark(#ffffff, var(--ge-dark-color, #121212)); stroke: light-dark(rgb(0, 0, 0), rgb(255, 255, 255));"/></g></g><g data-cell-id="F7J1Af_dbKJEZEgm15s_-10"><g><path d="M 37.55 266.27 L 40.54 290.35 C 41.11 293.89 39.54 297.43 36.55 299.38 C 26.32 301 15.89 301 5.66 299.38 C 2.67 297.43 1.1 293.89 1.67 290.35 L 4.66 266.27 C 5.24 263.61 8.09 261.56 11.64 261.26 L 30.57 261.26 C 34.12 261.56 36.98 263.61 37.55 266.27 Z" fill="#ffffff" stroke="#000000" stroke-miterlimit="10" transform="rotate(-90,21.11,279.5)" pointer-events="all" style="fill: light-dark(#ffffff, var(--ge-dark-color, #121212)); stroke: light-dark(rgb(0, 0, 0), rgb(255, 255, 255));"/><path d="M 36.77 260.76 C 37.6 261.07 38.05 262.08 37.77 263 C 37.5 263.93 36.6 264.43 35.77 264.13 C 25.93 261.7 15.73 261.7 5.88 264.13 C 5.26 263.95 4.76 263.43 4.56 262.75 C 4.36 262.07 4.48 261.32 4.88 260.76 C 15.37 258 26.28 258 36.77 260.76" fill="#ffffff" stroke="#000000" stroke-miterlimit="10" transform="rotate(-90,21.11,279.5)" pointer-events="all" style="fill: light-dark(#ffffff, var(--ge-dark-color, #121212)); stroke: light-dark(rgb(0, 0, 0), rgb(255, 255, 255));"/></g></g><g data-cell-id="F7J1Af_dbKJEZEgm15s_-11"><g><rect x="56.11" y="244.5" width="120" height="60" rx="9" ry="9" fill="#ffffff" stroke="#000000" transform="rotate(90,116.11,274.5)" pointer-events="all" style="fill: light-dark(#ffffff, var(--ge-dark-color, #121212)); stroke: light-dark(rgb(0, 0, 0), rgb(255, 255, 255));"/></g></g><g data-cell-id="F7J1Af_dbKJEZEgm15s_-12"><g><rect x="-6" y="244.5" width="120" height="60" rx="9" ry="9" fill="#ffffff" stroke="#000000" transform="rotate(90,54,274.5)" pointer-events="all" style="fill: light-dark(#ffffff, var(--ge-dark-color, #121212)); stroke: light-dark(rgb(0, 0, 0), rgb(255, 255, 255));"/></g></g><g data-cell-id="F7J1Af_dbKJEZEgm15s_-13"><g><path d="M 37.55 390.74 L 40.54 414.82 C 41.11 418.36 39.54 421.9 36.55 423.85 C 26.32 425.47 15.89 425.47 5.66 423.85 C 2.67 421.9 1.1 418.36 1.67 414.82 L 4.66 390.74 C 5.24 388.08 8.09 386.03 11.64 385.73 L 30.57 385.73 C 34.12 386.03 36.98 388.08 37.55 390.74 Z" fill="#ffffff" stroke="#000000" stroke-miterlimit="10" transform="rotate(-90,21.11,403.97)" pointer-events="all" style="fill: light-dark(#ffffff, var(--ge-dark-color, #121212)); stroke: light-dark(rgb(0, 0, 0), rgb(255, 255, 255));"/><path d="M 36.77 385.23 C 37.6 385.54 38.05 386.55 37.77 387.47 C 37.5 388.4 36.6 388.9 35.77 388.6 C 25.93 386.17 15.73 386.17 5.88 388.6 C 5.26 388.42 4.76 387.9 4.56 387.22 C 4.36 386.54 4.48 385.79 4.88 385.23 C 15.37 382.47 26.28 382.47 36.77 385.23" fill="#ffffff" stroke="#000000" stroke-miterlimit="10" transform="rotate(-90,21.11,403.97)" pointer-events="all" style="fill: light-dark(#ffffff, var(--ge-dark-color, #121212)); stroke: light-dark(rgb(0, 0, 0), rgb(255, 255, 255));"/></g></g><g data-cell-id="F7J1Af_dbKJEZEgm15s_-14"><g><rect x="56.11" y="368.97" width="120" height="60" rx="9" ry="9" fill="#ffffff" stroke="#000000" transform="rotate(90,116.11,398.97)" pointer-events="all" style="fill: light-dark(#ffffff, var(--ge-dark-color, #121212)); stroke: light-dark(rgb(0, 0, 0), rgb(255, 255, 255));"/></g></g><g data-cell-id="F7J1Af_dbKJEZEgm15s_-15"><g><rect x="-6" y="368.97" width="120" height="60" rx="9" ry="9" fill="#ffffff" stroke="#000000" transform="rotate(90,54,398.97)" pointer-events="all" style="fill: light-dark(#ffffff, var(--ge-dark-color, #121212)); stroke: light-dark(rgb(0, 0, 0), rgb(255, 255, 255));"/></g></g><g data-cell-id="F7J1Af_dbKJEZEgm15s_-16"><g><path d="M 37.55 514.77 L 40.54 538.85 C 41.11 542.39 39.54 545.93 36.55 547.88 C 26.32 549.5 15.89 549.5 5.66 547.88 C 2.67 545.93 1.1 542.39 1.67 538.85 L 4.66 514.77 C 5.24 512.11 8.09 510.06 11.64 509.76 L 30.57 509.76 C 34.12 510.06 36.98 512.11 37.55 514.77 Z" fill="#ffffff" stroke="#000000" stroke-miterlimit="10" transform="rotate(-90,21.11,528)" pointer-events="all" style="fill: light-dark(#ffffff, var(--ge-dark-color, #121212)); stroke: light-dark(rgb(0, 0, 0), rgb(255, 255, 255));"/><path d="M 36.77 509.26 C 37.6 509.57 38.05 510.58 37.77 511.5 C 37.5 512.43 36.6 512.93 35.77 512.63 C 25.93 510.2 15.73 510.2 5.88 512.63 C 5.26 512.45 4.76 511.93 4.56 511.25 C 4.36 510.57 4.48 509.82 4.88 509.26 C 15.37 506.5 26.28 506.5 36.77 509.26" fill="#ffffff" stroke="#000000" stroke-miterlimit="10" transform="rotate(-90,21.11,528)" pointer-events="all" style="fill: light-dark(#ffffff, var(--ge-dark-color, #121212)); stroke: light-dark(rgb(0, 0, 0), rgb(255, 255, 255));"/></g></g><g data-cell-id="F7J1Af_dbKJEZEgm15s_-17"><g><rect x="56.11" y="493" width="120" height="60" rx="9" ry="9" fill="#ffffff" stroke="#000000" transform="rotate(90,116.11,523)" pointer-events="all" style="fill: light-dark(#ffffff, var(--ge-dark-color, #121212)); stroke: light-dark(rgb(0, 0, 0), rgb(255, 255, 255));"/></g></g><g data-cell-id="F7J1Af_dbKJEZEgm15s_-18"><g><rect x="-6" y="493" width="120" height="60" rx="9" ry="9" fill="#ffffff" stroke="#000000" transform="rotate(90,54,523)" pointer-events="all" style="fill: light-dark(#ffffff, var(--ge-dark-color, #121212)); stroke: light-dark(rgb(0, 0, 0), rgb(255, 255, 255));"/></g></g></g></g></g></svg>